<svg width="193" height="65" viewBox="0 0 193 65" xmlns="http://www.w3.org/2000/svg" xmlns:xlink="http://www.w3.org/1999/xlink"><defs><path id="a" d="M.39.072h18.527v29.081H.39z"/><path id="c" d="M0 .352h21.72v62.683H0z"/></defs><g fill="none" fill-rule="evenodd"><path fill="#FFF" d="M64.935 26.623L75.16 7.584h-9.525V3.01h15.98v4.226L71.232 26.12H81.77v4.575H64.935zM100.613 3.01v4.575H90.49v6.514h9.526v4.576h-9.526v7.444h10.518v4.575H84.776V3.01zM104.617 30.694V3.01h5.642v23.11h9.99v4.575zM123.857 3.01h8.32l3.966 19.542h.079l4.004-19.543h8.282v27.685h-5.132V8.593h-.078l-4.938 22.101h-4.355l-4.938-22.101h-.078v22.101h-5.132zM159.01 20.264h5.45l-2.686-12.447h-.078l-2.686 12.447zm-.74-17.255h6.93l7.358 27.685h-5.84l-1.285-5.855h-7.396l-1.285 5.855h-5.84L158.27 3.01zM187.81 3.01v18.96h-.08l-6.842-18.96h-6.527v27.684h5.19V11.307h.08l6.92 19.387H193V3.01zM66.137 36.713h8.32l3.967 19.542h.077l4.005-19.542h8.282v27.685h-5.132V42.296h-.078L80.64 64.398h-4.355l-4.938-22.102h-.077v22.102h-5.133zM110.232 36.713v4.575h-10.121v6.515h9.526v4.575h-9.526v7.445h10.518v4.575H94.396V36.713zM119.93 53.968h5.45l-2.687-12.447h-.078l-2.686 12.447zm-.74-17.255h6.929l7.358 27.685h-5.84l-1.285-5.855h-7.396l-1.285 5.855h-5.84l7.358-27.685zM146.704 36.713v4.575h-5.965v23.11h-5.506v-23.11h-5.965v-4.575z"/><g transform="translate(148.093 35.245)"><mask id="b" fill="#fff"><use xlink:href="#a"/></mask><path d="M6.007 19.865v.823c0 2.626.74 4.31 3.705 4.31 1.716 0 3.354-1.097 3.354-3.448 0-2.547-1.287-3.488-4.992-4.782C3.08 15.044.78 12.966.78 8.303.78 2.855 4.095.073 9.4.073c4.992 0 8.62 2.155 8.62 7.524v.784h-5.382c0-2.626-.898-4.154-3.043-4.154-2.535 0-3.198 1.607-3.198 3.253 0 1.724.507 2.782 2.886 3.801l4.33 1.882c4.212 1.842 5.304 3.997 5.304 7.407 0 5.918-3.589 8.583-9.673 8.583-6.358 0-8.854-2.979-8.854-8.152v-1.136h5.617z" fill="#FFF" mask="url(#b)"/></g><path d="M41.975 61.21c.203.02.481.02.657.02h5.364l.01-58.259C37.134 19.221 31.5 42.39 30.303 47.723h4.775c2.814-.016 5.607-.002 5.734 0 2.101.188 2.076 1.845 2.066 2.552l-.002.208.008 8.738c0 .69-.42 1.29-.757 1.77-.045.064-.1.143-.15.218zm6.069 1.824h-5.412c-.766 0-2.561 0-2.561-1.753 0-.49.285-.897.587-1.328.144-.206.413-.59.43-.74l-.009-8.73.002-.235c.003-.212.008-.566-.044-.658-.006 0-.087-.046-.308-.066-.033 0-1.202-.005-2.78-.005-.872 0-1.868.002-2.866.008h-7l.225-1.086c.244-1.178 6.126-29.074 18.906-47.495.315-.396.72-.594 1.15-.594.79 0 1.436.647 1.439 1.442v.13l-.001.004-.01 59.55c0 .877-.617 1.502-1.536 1.555l-.212.001z" fill="#B22631"/><mask id="d" fill="#fff"><use xlink:href="#c"/></mask><path d="M1.807 2.157l-.01 58.259C12.664 44.169 18.302 20.996 19.5 15.664h-4.775c-2.815.016-5.607.001-5.734 0-2.101-.189-2.076-1.845-2.066-2.552l.003-.208-.009-8.74c0-.69.42-1.289.758-1.77.044-.064.1-.142.15-.217-.203-.02-.481-.02-.657-.02H1.807zM.899 61.582h.897-.897zm.54 1.453A1.446 1.446 0 0 1 0 61.59v-.213l.002-.004.01-59.467c0-.88.617-1.504 1.538-1.555h5.62c.767 0 2.562 0 2.562 1.753 0 .491-.284.897-.586 1.328-.145.206-.414.59-.43.739l.008 8.732-.002.235c-.003.211-.008.565.044.658v-.001c.006 0 .086.047.308.067.033 0 1.2.004 2.771.004.873 0 1.872-.002 2.876-.007h7l-.226 1.086c-.244 1.179-6.13 29.08-18.906 47.495-.314.396-.72.594-1.15.594z" fill="#FFF" mask="url(#d)"/></g></svg>